<?xml version="1.0" encoding="UTF-8"?> <svg xmlns="http://www.w3.org/2000/svg" width="261" height="37" viewBox="0 0 261 37" fill="none"><path d="M227.458 34.839V1.87196H238.494V16.1152L248.021 1.8248H260.567L249.578 18.3319L260.567 34.839H248.021L238.494 20.5486V34.839H227.458Z" fill="#262626"></path><path d="M211.809 34.839V19.1808L200.773 34.839H189.784V1.8248H200.773V17.483L211.809 1.8248H222.798V34.839H211.809Z" fill="#262626"></path><path d="M163.005 1.8248V12.8138H174.041V1.8248H185.03V34.839H174.041V23.85H163.005V34.839H152.016V1.8248H163.005Z" fill="#262626"></path><path d="M147.769 1.8248V12.8138H136.78V34.839H125.744V12.8138H114.755V1.8248H147.769Z" fill="#262626"></path><path d="M86.2395 1.8248L91.7576 18.3319H94.9176L100.388 1.8248H111.943L100.954 34.839H89.3995L91.2388 29.3209H83.8342L74.6846 1.8248H86.2395Z" fill="#262626"></path><path d="M71.9129 1.8248V34.839H60.9239V12.8138H49.8877V34.839H38.8987V1.8248H71.9129Z" fill="#262626"></path><path d="M18.4886 36.2539C16.0362 36.2539 13.7094 35.7823 11.5085 34.839C9.33899 33.8957 7.43675 32.6223 5.80176 31.0188C4.19821 29.3838 2.92481 27.4816 1.98154 25.3121C1.03828 23.1425 0.56665 20.8158 0.56665 18.3319C0.56665 15.8794 1.03828 13.5684 1.98154 11.3989C2.92481 9.22942 4.19821 7.34289 5.80176 5.73934C7.43675 4.10435 9.33899 2.81523 11.5085 1.87196C13.7094 0.928701 16.0362 0.457069 18.4886 0.457069C20.4381 0.457069 22.3089 0.75577 24.1011 1.35317C25.8933 1.95057 27.5282 2.79951 29.006 3.89998C30.5152 4.96901 31.8201 6.25814 32.9206 7.76736C34.0525 9.27658 34.9171 10.9587 35.5145 12.8138L24.1482 14.323C23.4879 13.4112 22.6547 12.688 21.6486 12.1535C20.6424 11.619 19.5891 11.3518 18.4886 11.3518C17.5454 11.3518 16.6493 11.5404 15.8003 11.9177C14.9829 12.2636 14.2597 12.7509 13.6308 13.3798C13.002 14.0086 12.4989 14.7475 12.1216 15.5964C11.7758 16.4454 11.6028 17.3572 11.6028 18.3319C11.6028 19.2752 11.7758 20.187 12.1216 21.0674C12.4989 21.9163 13.002 22.6552 13.6308 23.284C14.2597 23.9129 14.9829 24.4159 15.8003 24.7933C16.6493 25.1706 17.5454 25.3592 18.4886 25.3592C19.5891 25.3592 20.6424 25.092 21.6486 24.5574C22.6547 24.0229 23.4879 23.2998 24.1482 22.3879L35.5145 23.8972C34.9171 25.7208 34.0525 27.4029 32.9206 28.9436C31.8201 30.4528 30.5152 31.7577 29.006 32.8582C27.5282 33.9272 25.8933 34.7604 24.1011 35.3578C22.3089 35.9552 20.4381 36.2539 18.4886 36.2539Z" fill="#262626"></path><circle cx="18.6236" cy="18.7277" r="7.36924" fill="#FF6A00"></circle><path d="M19.0777 36.414C9.10084 36.414 0.937988 28.3263 0.937988 18.3356C0.937988 8.39243 9.10084 0.30471 19.0777 0.30471C26.9541 0.30471 33.8758 5.34764 36.3103 12.7693L24.806 14.2917C23.4694 12.4839 21.3212 11.2945 19.0777 11.2945C15.2588 11.2945 12.1082 14.4344 12.1082 18.3356C12.1082 22.1891 15.2588 25.4242 19.0777 25.4242C21.3212 25.4242 23.4694 24.2348 24.806 22.427L36.3103 23.9494C33.8758 31.3711 26.9541 36.414 19.0777 36.414Z" fill="#262626"></path><path d="M26.3773 18.3851C26.3773 22.3537 23.1492 25.5709 19.1672 25.5709C15.1851 25.5709 11.957 22.3537 11.957 18.3851C11.957 14.4165 15.1851 11.1993 19.1672 11.1993C23.1492 11.1993 26.3773 14.4165 26.3773 18.3851Z" fill="#FF6A00"></path><circle cx="18.9921" cy="18.3593" r="6.75342" fill="#FF6A00" stroke="#262626" stroke-width="1.96856"></circle></svg>
